<svg xmlns="http://www.w3.org/2000/svg" width="16" height="17"><path d="M1.756.164a.527.527 0 00-.762 0L.166.983A.515.515 0 000 1.36c0 .141.055.267.166.376l6.509 6.438-6.51 6.437a.516.516 0 00-.165.377c0 .142.055.268.166.377l.828.819a.526.526 0 00.762 0L9.474 8.55a.516.516 0 00.166-.377.516.516 0 00-.166-.377zm6.36 0a.527.527 0 00-.762 0l-.828.819a.515.515 0 00-.166.377c0 .141.055.267.166.376l6.51 6.438-6.51 6.437a.516.516 0 00-.166.377c0 .142.055.268.166.377l.828.819a.526.526 0 00.762 0l7.718-7.633A.516.516 0 0016 8.174a.516.516 0 00-.166-.377z"/><path fill="#db9c24" d="M1.756.164a.527.527 0 00-.762 0L.166.983A.515.515 0 000 1.36c0 .141.055.267.166.376l6.509 6.438-6.51 6.437a.516.516 0 00-.165.377c0 .142.055.268.166.377l.828.819a.526.526 0 00.762 0L9.474 8.55a.516.516 0 00.166-.377.516.516 0 00-.166-.377zm6.36 0a.527.527 0 00-.762 0l-.828.819a.515.515 0 00-.166.377c0 .141.055.267.166.376l6.51 6.438-6.51 6.437a.516.516 0 00-.166.377c0 .142.055.268.166.377l.828.819a.526.526 0 00.762 0l7.718-7.633A.516.516 0 0016 8.174a.516.516 0 00-.166-.377z"/></svg>