<svg xmlns="http://www.w3.org/2000/svg" width="21" height="21"><path fill="#c9c9c9" d="M3.959-.115c-1.09 0-2.023.387-2.797 1.162C.387 1.82 0 2.754 0 3.844v13.197c0 1.09.387 2.023 1.162 2.797C1.936 20.613 2.868 21 3.959 21h7.313v-8.18h-2.75V9.632h2.75v-2.35c0-1.338.373-2.374 1.12-3.107.747-.733 1.744-1.1 2.99-1.1 1.054 0 1.87.042 2.447.124v2.846l-1.677.013c-.623 0-1.042.129-1.258.385-.215.257-.323.642-.323 1.155v2.034h3.148l-.412 3.19H14.57V21h2.585c1.09 0 2.023-.387 2.797-1.162.774-.774 1.162-1.706 1.162-2.797V3.844c0-1.09-.388-2.023-1.162-2.797-.774-.775-1.707-1.162-2.797-1.162z"/></svg>