<svg xmlns="http://www.w3.org/2000/svg" width="21" height="21"><path fill="#c9c9c9" d="M18.36 18.326a.818.818 0 01-.59.24H3.074a.811.811 0 01-.598-.24.81.81 0 01-.24-.598V8.82h1.938a5.913 5.913 0 00-.275 1.801c0 1.76.642 3.26 1.925 4.502s2.827 1.863 4.632 1.863a6.605 6.605 0 003.3-.852 6.413 6.413 0 002.391-2.317c.587-.976.88-2.041.88-3.196 0-.623-.092-1.223-.275-1.8h1.856v8.907a.8.8 0 01-.247.598zM7.467 13.31c-.83-.802-1.244-1.771-1.244-2.908 0-1.136.415-2.105 1.244-2.907.83-.802 1.826-1.203 2.99-1.203 1.173 0 2.174.401 3.004 1.203.83.802 1.244 1.771 1.244 2.907 0 1.137-.415 2.106-1.244 2.908-.83.802-1.83 1.203-3.004 1.203-1.164 0-2.16-.401-2.99-1.203zm10.867-7.183a.916.916 0 01-.673.275h-2.392a.915.915 0 01-.674-.275.915.915 0 01-.275-.673v-2.27c0-.256.092-.478.275-.666a.905.905 0 01.674-.282h2.392c.265 0 .49.094.673.282.183.188.275.41.275.666v2.269c0 .265-.092.49-.275.673zm1.87-5.444a2.607 2.607 0 00-1.911-.797h-15.7c-.742 0-1.38.266-1.91.797a2.606 2.606 0 00-.798 1.911v15.699c0 .742.266 1.38.797 1.91A2.607 2.607 0 002.593 21h15.699c.742 0 1.379-.266 1.91-.797A2.607 2.607 0 0021 18.292V2.593c0-.742-.266-1.379-.797-1.91z"/></svg>