<svg xmlns="http://www.w3.org/2000/svg" width="60" height="63" viewBox="0 0 20 21"><path fill="#c9c9c9" d="M15.15 16.803c-.638.306-1.205.459-1.7.459a3.04 3.04 0 01-.442-.034 4.059 4.059 0 01-.827-.189 6.705 6.705 0 01-.384-.135 46.535 46.535 0 00-.82-.317c-1.424-.539-2.815-1.512-4.174-2.92-1.358-1.406-2.298-2.847-2.819-4.321a53.044 53.044 0 00-.306-.85 7.352 7.352 0 01-.13-.398 4.446 4.446 0 01-.182-.856 3.45 3.45 0 01-.033-.459c0-.512.148-1.099.443-1.76.295-.66.642-1.085 1.042-1.274.46-.198.898-.297 1.315-.297a.59.59 0 01.208.027c.043.018.115.1.215.243.1.144.208.326.325.546.118.22.233.434.346.64a29.326 29.326 0 01.52.999c.026.045.083.13.17.256.086.126.151.238.195.337.043.1.065.193.065.283 0 .135-.09.3-.267.493-.178.193-.373.37-.586.532a5.118 5.118 0 00-.586.52c-.178.184-.267.334-.267.451a.67.67 0 00.046.223 2.144 2.144 0 00.208.438c.057.1.093.162.11.189.478.89 1.027 1.656 1.648 2.3a9.964 9.964 0 002.22 1.705c.026.018.087.056.182.115a1.985 1.985 0 00.423.216.617.617 0 00.215.047c.14 0 .33-.149.573-.445.243-.297.49-.591.742-.884.252-.292.456-.438.612-.438.087 0 .178.023.274.068.095.045.204.112.325.202.122.09.204.148.248.175l.69.391c.46.252.844.474 1.152.668.308.193.476.326.502.398a.649.649 0 01.026.215c0 .432-.096.886-.287 1.362-.182.414-.592.774-1.23 1.08zM18.9 1.14C18.166.38 17.283 0 16.25 0H3.75C2.717 0 1.834.38 1.1 1.14.367 1.9 0 2.814 0 3.884V16.83c0 1.07.367 1.985 1.1 2.745.734.76 1.617 1.14 2.65 1.14h12.5c1.033 0 1.916-.38 2.65-1.14.733-.76 1.1-1.675 1.1-2.745V3.884c0-1.07-.367-1.985-1.1-2.744z"/></svg>