<svg xmlns="http://www.w3.org/2000/svg" width="12" height="12"><path fill="#fff" d="M5.077 8.308a3.11 3.11 0 01-2.283-.949 3.11 3.11 0 01-.948-2.282c0-.89.316-1.65.948-2.283a3.112 3.112 0 012.283-.948c.89 0 1.65.316 2.282.948.632.633.949 1.393.949 2.283 0 .89-.317 1.65-.949 2.282a3.111 3.111 0 01-2.282.949zm4.183-.354c.596-.86.894-1.82.894-2.877a4.99 4.99 0 00-.4-1.973 5.08 5.08 0 00-1.082-1.622A5.075 5.075 0 007.049.4 4.986 4.986 0 005.077 0c-.688 0-1.345.133-1.973.4a5.074 5.074 0 00-1.622 1.082A5.077 5.077 0 00.4 3.104 4.989 4.989 0 000 5.077c0 .687.133 1.345.4 1.972a5.077 5.077 0 001.082 1.623c.454.454.995.815 1.622 1.081.628.267 1.285.4 1.973.4a4.938 4.938 0 002.877-.893l2.474 2.466a.86.86 0 00.649.274.89.89 0 00.649-.274.887.887 0 00.274-.65.884.884 0 00-.267-.648z"/></svg>